<mxfile host="app.diagrams.net" modified="2022-10-19T19:51:18.164Z" agent="5.0 (Windows NT 10.0; Win64; x64) AppleWebKit/537.36 (KHTML, like Gecko) Chrome/106.0.0.0 Safari/537.36" etag="5bG2X6FIc7t689FPCMf3" version="20.4.1" type="github">
  <diagram id="Iv71ZyVEkk0wnfyG-dyE" name="Page-1">
    <mxGraphModel dx="1580" dy="838" grid="0" gridSize="10" guides="1" tooltips="1" connect="1" arrows="1" fold="1" page="1" pageScale="1" pageWidth="827" pageHeight="1169" math="0" shadow="0">
      <root>
        <mxCell id="0" />
        <mxCell id="1" parent="0" />
        <mxCell id="U6Mo1cGebeO-2rWxppmE-1" style="rounded=0;orthogonalLoop=1;jettySize=auto;html=1;entryX=0;entryY=0.5;entryDx=0;entryDy=0;endArrow=none;endFill=0;" parent="1" target="U6Mo1cGebeO-2rWxppmE-6" edge="1">
          <mxGeometry relative="1" as="geometry">
            <mxPoint x="120" y="410" as="sourcePoint" />
          </mxGeometry>
        </mxCell>
        <mxCell id="U6Mo1cGebeO-2rWxppmE-2" style="edgeStyle=none;rounded=0;orthogonalLoop=1;jettySize=auto;html=1;entryX=0;entryY=0.5;entryDx=0;entryDy=0;endArrow=none;endFill=0;" parent="1" target="U6Mo1cGebeO-2rWxppmE-23" edge="1">
          <mxGeometry relative="1" as="geometry">
            <mxPoint x="120" y="410" as="sourcePoint" />
            <mxPoint x="270.5025253169417" y="290.25126265847075" as="targetPoint" />
          </mxGeometry>
        </mxCell>
        <mxCell id="U6Mo1cGebeO-2rWxppmE-3" value="Registered user" style="shape=umlActor;verticalLabelPosition=bottom;verticalAlign=top;html=1;" parent="1" vertex="1">
          <mxGeometry x="80" y="380" width="30" height="60" as="geometry" />
        </mxCell>
        <mxCell id="U6Mo1cGebeO-2rWxppmE-4" value="HLMA" style="shape=umlFrame;whiteSpace=wrap;html=1;" parent="1" vertex="1">
          <mxGeometry x="170" y="40" width="600" height="810" as="geometry" />
        </mxCell>
        <mxCell id="U6Mo1cGebeO-2rWxppmE-5" value="&amp;lt;&amp;lt;includes&amp;gt;&amp;gt;" style="edgeStyle=none;rounded=0;orthogonalLoop=1;jettySize=auto;html=1;exitX=1;exitY=0.5;exitDx=0;exitDy=0;entryX=0;entryY=0.5;entryDx=0;entryDy=0;endArrow=open;endFill=0;" parent="1" source="U6Mo1cGebeO-2rWxppmE-6" target="U6Mo1cGebeO-2rWxppmE-10" edge="1">
          <mxGeometry relative="1" as="geometry" />
        </mxCell>
        <mxCell id="U6Mo1cGebeO-2rWxppmE-6" value="Login" style="ellipse;whiteSpace=wrap;html=1;" parent="1" vertex="1">
          <mxGeometry x="250" y="100" width="140" height="70" as="geometry" />
        </mxCell>
        <mxCell id="U6Mo1cGebeO-2rWxppmE-10" value="Verify account" style="ellipse;whiteSpace=wrap;html=1;" parent="1" vertex="1">
          <mxGeometry x="490" y="100" width="140" height="70" as="geometry" />
        </mxCell>
        <mxCell id="U6Mo1cGebeO-2rWxppmE-31" value="&amp;lt;&amp;lt;includes&amp;gt;&amp;gt;" style="edgeStyle=orthogonalEdgeStyle;rounded=0;orthogonalLoop=1;jettySize=auto;html=1;endArrow=open;endFill=0;" parent="1" source="U6Mo1cGebeO-2rWxppmE-23" target="U6Mo1cGebeO-2rWxppmE-28" edge="1">
          <mxGeometry relative="1" as="geometry" />
        </mxCell>
        <mxCell id="U6Mo1cGebeO-2rWxppmE-23" value="View user details" style="ellipse;whiteSpace=wrap;html=1;" parent="1" vertex="1">
          <mxGeometry x="250" y="230" width="140" height="70" as="geometry" />
        </mxCell>
        <mxCell id="U6Mo1cGebeO-2rWxppmE-28" value="Edit user details" style="ellipse;whiteSpace=wrap;html=1;" parent="1" vertex="1">
          <mxGeometry x="490" y="230" width="140" height="70" as="geometry" />
        </mxCell>
        <mxCell id="U6Mo1cGebeO-2rWxppmE-36" value="&amp;lt;&amp;lt;includes&amp;gt;&amp;gt;" style="edgeStyle=orthogonalEdgeStyle;rounded=0;orthogonalLoop=1;jettySize=auto;html=1;endArrow=open;endFill=0;" parent="1" source="U6Mo1cGebeO-2rWxppmE-32" target="U6Mo1cGebeO-2rWxppmE-33" edge="1">
          <mxGeometry relative="1" as="geometry" />
        </mxCell>
        <mxCell id="U6Mo1cGebeO-2rWxppmE-39" style="rounded=0;orthogonalLoop=1;jettySize=auto;html=1;exitX=0.5;exitY=1;exitDx=0;exitDy=0;entryX=0.5;entryY=0;entryDx=0;entryDy=0;" parent="1" source="U6Mo1cGebeO-2rWxppmE-32" target="U6Mo1cGebeO-2rWxppmE-37" edge="1">
          <mxGeometry relative="1" as="geometry" />
        </mxCell>
        <mxCell id="U6Mo1cGebeO-2rWxppmE-40" style="edgeStyle=none;rounded=0;orthogonalLoop=1;jettySize=auto;html=1;exitX=0.5;exitY=1;exitDx=0;exitDy=0;entryX=0;entryY=0;entryDx=0;entryDy=0;" parent="1" source="U6Mo1cGebeO-2rWxppmE-32" target="U6Mo1cGebeO-2rWxppmE-38" edge="1">
          <mxGeometry relative="1" as="geometry" />
        </mxCell>
        <mxCell id="U6Mo1cGebeO-2rWxppmE-32" value="View tracker" style="ellipse;whiteSpace=wrap;html=1;" parent="1" vertex="1">
          <mxGeometry x="250" y="340" width="140" height="70" as="geometry" />
        </mxCell>
        <mxCell id="U6Mo1cGebeO-2rWxppmE-33" value="Update tracker" style="ellipse;whiteSpace=wrap;html=1;" parent="1" vertex="1">
          <mxGeometry x="490" y="340" width="140" height="70" as="geometry" />
        </mxCell>
        <mxCell id="U6Mo1cGebeO-2rWxppmE-34" style="edgeStyle=none;rounded=0;orthogonalLoop=1;jettySize=auto;html=1;entryX=0;entryY=0.5;entryDx=0;entryDy=0;endArrow=none;endFill=0;" parent="1" target="U6Mo1cGebeO-2rWxppmE-32" edge="1">
          <mxGeometry relative="1" as="geometry">
            <mxPoint x="120" y="410" as="sourcePoint" />
            <mxPoint x="265.03999999999996" y="264.01" as="targetPoint" />
          </mxGeometry>
        </mxCell>
        <mxCell id="U6Mo1cGebeO-2rWxppmE-37" value="View meal tracker" style="ellipse;whiteSpace=wrap;html=1;" parent="1" vertex="1">
          <mxGeometry x="210" y="450" width="140" height="70" as="geometry" />
        </mxCell>
        <mxCell id="U6Mo1cGebeO-2rWxppmE-38" value="View exercise tracker" style="ellipse;whiteSpace=wrap;html=1;" parent="1" vertex="1">
          <mxGeometry x="360" y="450" width="140" height="70" as="geometry" />
        </mxCell>
        <mxCell id="U6Mo1cGebeO-2rWxppmE-46" value="&amp;lt;&amp;lt;includes&amp;gt;&amp;gt;" style="edgeStyle=none;rounded=0;orthogonalLoop=1;jettySize=auto;html=1;exitX=1;exitY=0.5;exitDx=0;exitDy=0;entryX=0;entryY=0.5;entryDx=0;entryDy=0;endArrow=open;endFill=0;" parent="1" source="U6Mo1cGebeO-2rWxppmE-43" target="U6Mo1cGebeO-2rWxppmE-45" edge="1">
          <mxGeometry relative="1" as="geometry" />
        </mxCell>
        <mxCell id="U6Mo1cGebeO-2rWxppmE-43" value="View wellbeing activities" style="ellipse;whiteSpace=wrap;html=1;" parent="1" vertex="1">
          <mxGeometry x="250" y="550" width="140" height="70" as="geometry" />
        </mxCell>
        <mxCell id="U6Mo1cGebeO-2rWxppmE-44" style="edgeStyle=none;rounded=0;orthogonalLoop=1;jettySize=auto;html=1;endArrow=none;endFill=0;entryX=0;entryY=0.5;entryDx=0;entryDy=0;" parent="1" target="U6Mo1cGebeO-2rWxppmE-43" edge="1">
          <mxGeometry relative="1" as="geometry">
            <mxPoint x="120" y="410" as="sourcePoint" />
            <mxPoint x="259.999999999995" y="385" as="targetPoint" />
          </mxGeometry>
        </mxCell>
        <mxCell id="U6Mo1cGebeO-2rWxppmE-45" value="Complete wellbeing quiz" style="ellipse;whiteSpace=wrap;html=1;" parent="1" vertex="1">
          <mxGeometry x="490" y="550" width="140" height="70" as="geometry" />
        </mxCell>
        <mxCell id="U6Mo1cGebeO-2rWxppmE-49" value="&amp;lt;&amp;lt;includes&amp;gt;&amp;gt;" style="edgeStyle=none;rounded=0;orthogonalLoop=1;jettySize=auto;html=1;endArrow=open;endFill=0;" parent="1" source="U6Mo1cGebeO-2rWxppmE-47" target="U6Mo1cGebeO-2rWxppmE-48" edge="1">
          <mxGeometry relative="1" as="geometry" />
        </mxCell>
        <mxCell id="U6Mo1cGebeO-2rWxppmE-47" value="View personal goals" style="ellipse;whiteSpace=wrap;html=1;" parent="1" vertex="1">
          <mxGeometry x="250" y="650" width="140" height="70" as="geometry" />
        </mxCell>
        <mxCell id="U6Mo1cGebeO-2rWxppmE-48" value="Set personal goals" style="ellipse;whiteSpace=wrap;html=1;" parent="1" vertex="1">
          <mxGeometry x="490" y="650" width="140" height="70" as="geometry" />
        </mxCell>
        <mxCell id="U6Mo1cGebeO-2rWxppmE-51" value="&amp;lt;&amp;lt;extends&amp;gt;&amp;gt;" style="edgeStyle=none;rounded=0;orthogonalLoop=1;jettySize=auto;html=1;exitX=0;exitY=0;exitDx=0;exitDy=0;entryX=0.768;entryY=0.92;entryDx=0;entryDy=0;entryPerimeter=0;endArrow=open;endFill=0;" parent="1" source="U6Mo1cGebeO-2rWxppmE-50" target="U6Mo1cGebeO-2rWxppmE-47" edge="1">
          <mxGeometry relative="1" as="geometry" />
        </mxCell>
        <mxCell id="U6Mo1cGebeO-2rWxppmE-50" value="View in-app rewards" style="ellipse;whiteSpace=wrap;html=1;" parent="1" vertex="1">
          <mxGeometry x="490" y="750" width="140" height="70" as="geometry" />
        </mxCell>
        <mxCell id="U6Mo1cGebeO-2rWxppmE-52" style="edgeStyle=none;rounded=0;orthogonalLoop=1;jettySize=auto;html=1;endArrow=none;endFill=0;entryX=0;entryY=0.5;entryDx=0;entryDy=0;" parent="1" target="U6Mo1cGebeO-2rWxppmE-47" edge="1">
          <mxGeometry relative="1" as="geometry">
            <mxPoint x="120" y="410" as="sourcePoint" />
            <mxPoint x="259.999999999995" y="595" as="targetPoint" />
          </mxGeometry>
        </mxCell>
        <mxCell id="U6Mo1cGebeO-2rWxppmE-54" value="&amp;lt;&amp;lt;extends&amp;gt;&amp;gt;" style="edgeStyle=none;rounded=0;orthogonalLoop=1;jettySize=auto;html=1;exitX=0;exitY=0.5;exitDx=0;exitDy=0;entryX=0.97;entryY=0.724;entryDx=0;entryDy=0;entryPerimeter=0;endArrow=open;endFill=0;" parent="1" source="U6Mo1cGebeO-2rWxppmE-53" target="U6Mo1cGebeO-2rWxppmE-32" edge="1">
          <mxGeometry relative="1" as="geometry" />
        </mxCell>
        <mxCell id="U6Mo1cGebeO-2rWxppmE-55" value="&amp;lt;&amp;lt;extends&amp;gt;&amp;gt;" style="edgeStyle=none;rounded=0;orthogonalLoop=1;jettySize=auto;html=1;exitX=0;exitY=0.5;exitDx=0;exitDy=0;entryX=0.911;entryY=0.245;entryDx=0;entryDy=0;entryPerimeter=0;endArrow=open;endFill=0;" parent="1" source="U6Mo1cGebeO-2rWxppmE-53" target="U6Mo1cGebeO-2rWxppmE-43" edge="1">
          <mxGeometry relative="1" as="geometry" />
        </mxCell>
        <mxCell id="U6Mo1cGebeO-2rWxppmE-53" value="View recommendations" style="ellipse;whiteSpace=wrap;html=1;" parent="1" vertex="1">
          <mxGeometry x="620" y="450" width="140" height="70" as="geometry" />
        </mxCell>
      </root>
    </mxGraphModel>
  </diagram>
</mxfile>
